<?xml version="1.0" encoding="UTF-8"?>
<svg width="80px" height="80px" viewBox="0 0 80 80" version="1.1" xmlns="http://www.w3.org/2000/svg" xmlns:xlink="http://www.w3.org/1999/xlink">
    <!-- Generator: Sketch 52.5 (67469) - http://www.bohemiancoding.com/sketch -->
    <title>Group 4</title>
    <desc>Created with Sketch.</desc>
    <g id="Page-1" stroke="none" stroke-width="1" fill="none" fill-rule="evenodd">
        <g id="Landing-Page-Renewal" transform="translate(-181.000000, -856.000000)">
            <g id="Group-4" transform="translate(181.000000, 856.000000)">
                <path d="M2,10.9998328 L26,10.9999952 C20.1866063,17.1459013 19.3666997,26.0444775 23.5402801,37.6957238 C25.8179622,44.0542534 36.0959609,52.1177227 50,52.1177227 L50,78 L2,78 L2,10.9998328 Z" id="Rectangle" fill="#F7F5FF"></path>
                <rect id="Rectangle" fill="#706691" x="37" y="50" width="8" height="23"></rect>
                <polygon id="Rectangle-Copy-6" fill="#B3ADC5" points="22 40 25.640357 40 31 46 31 73 22 73"></polygon>
                <circle id="Oval" fill="#F7F5FF" cx="46.5" cy="26.5" r="19.5"></circle>
                <g id="research">
                    <path d="M78.9726277,54.0862715 L66.9499456,41.991829 C69.854603,38.1420627 71.6679541,33.527377 72.1330412,28.6892316 C72.702498,22.7515916 71.232164,16.7525615 67.9924241,11.7965475 C67.6365897,11.2526321 66.9096624,11.1016128 66.3695023,11.4595165 C65.8287319,11.81742 65.6785857,12.5485748 66.03442,13.0924903 C72.1653897,22.4704255 70.8793814,35.0473931 62.9765644,42.9967833 C53.7462353,52.2814057 38.7285638,52.2814057 29.4988451,42.9967833 C20.268516,33.7121608 20.268516,18.6046975 29.4988451,9.32007527 C38.7285638,0.035452691 53.7468458,0.035452691 62.9735127,9.31700566 L63.0375995,9.38207913 C63.4941415,9.84373187 64.2357173,9.84680133 64.6947008,9.38760419 C65.1542946,8.9290209 65.156736,8.1825186 64.7008044,7.72086586 L64.6336658,7.65272293 C54.4896422,-2.55090764 37.9851571,-2.55090764 27.8411335,7.65272293 C27.5225305,7.97317876 27.2143036,8.29977352 26.9158423,8.63250736 L1.17187276,8.63250736 C0.524901343,8.63250736 0,9.16046114 0,9.81119521 L0,15.0244332 C0,15.6757811 0.524901343,16.2037351 1.17187276,16.2037351 C1.8194545,16.2037351 2.34374553,15.6757811 2.34374553,15.0244332 L2.34374553,10.9904969 L25.035963,10.9904969 C24.140579,12.2557446 23.3703167,13.5829963 22.7251763,14.9562904 L8.1249845,14.9562904 C7.47801308,14.9562904 6.95311174,15.4836305 6.95311174,16.1349783 C6.95311174,16.786326 7.47801308,17.3136661 8.1249845,17.3136661 L21.7553296,17.3136661 C21.4190265,18.2602997 21.1388756,19.2222809 20.9142667,20.1953123 L8.1249845,20.1953123 C7.47801308,20.1953123 6.95311174,20.7226524 6.95311174,21.3740001 C6.95311174,22.024734 7.47801308,22.552688 8.1249845,22.552688 L20.480918,22.552688 C20.3496926,23.5085303 20.2709574,24.4705113 20.2447123,25.4337204 L8.1249845,25.4337204 C7.47801308,25.4337204 6.95311174,25.9616742 6.95311174,26.6130221 C6.95311174,27.2637561 7.47801308,27.79171 8.1249845,27.79171 L20.2856058,27.79171 C20.4967872,31.2160437 21.3701985,34.6059991 22.9088919,37.747325 L20.9380704,37.747325 C20.2904886,37.747325 19.7661976,38.2752789 19.7661976,38.9266267 L19.7661976,73.8206983 C19.7661976,74.4720462 20.2904886,75 20.9380704,75 L30.3130525,75 C30.9606344,75 31.4849253,74.4720462 31.4849253,73.8206983 L31.4849253,47.7170597 C32.5402211,48.4482146 33.6370208,49.0928094 34.766169,49.6496167 L34.766169,73.8206983 C34.766169,74.4720462 35.2910703,75 35.9380418,75 L45.3130239,75 C45.9606058,75 46.4848966,74.4720462 46.4848966,73.8206983 L46.4848966,52.3145562 C47.3985912,52.3053477 48.311065,52.2494829 49.2198767,52.1451198 L49.2198767,70.3527777 C49.2198767,71.0041254 49.7441678,71.5320794 50.3917495,71.5320794 C51.0387211,71.5320794 51.5636223,71.0041254 51.5636223,70.3527777 L51.5636223,51.7657298 C55.267839,50.9922159 58.835337,49.402215 61.9786415,46.9951134 L73.9988823,59.0871002 C74.6635538,59.7550233 75.5467309,60.1233632 76.4854497,60.1233632 C77.424779,60.1233632 78.3079561,59.7550233 78.9720173,59.0871002 C80.3422539,57.7095087 80.3428643,55.4663185 78.9726277,54.0862715 Z M29.1411797,72.6420104 L22.1099431,72.6420104 L22.1099431,40.1053146 L24.2211452,40.1053146 C25.2349372,41.7241688 26.4409896,43.2552351 27.8411335,44.6641355 C28.2634959,45.0889542 28.6980654,45.494742 29.1411797,45.8839546 L29.1411797,72.6420104 Z M37.1105248,72.6420104 L37.1105248,50.6637794 C39.3834699,51.5164863 41.7516294,52.0383013 44.1417614,52.2310658 L44.1417614,72.6420104 L37.1105248,72.6420104 Z M77.3155263,57.419748 C77.0939692,57.6425937 76.7991699,57.7653737 76.4860602,57.7653737 C76.1729503,57.7653737 75.8781512,57.6425937 75.6572043,57.419748 L63.7852787,45.4781667 C64.0727537,45.2135758 64.3559563,44.9434598 64.6336658,44.6641355 C64.9107649,44.3854248 65.1805397,44.1011893 65.4436008,43.8108145 L77.3143057,55.7530096 C77.7714581,56.2128208 77.7720685,56.9611647 77.3155263,57.419748 Z" id="Shape" fill="#1D1537" fill-rule="nonzero"></path>
                    <path d="M49.8409365,73.8431375 C49.2010371,73.8431375 48.6818731,74.3661024 48.6818731,75.0120464 L48.6818731,77.6621821 L2.31812694,77.6621821 L2.31812694,20.1689089 C2.31812694,19.522965 1.79956674,19 1.15906347,19 C0.519163846,19 0,19.522965 0,20.1689089 L0,78.8310911 C0,79.477035 0.519163846,80 1.15906347,80 L49.8409365,80 C50.4814399,80 51,79.477035 51,78.8310911 L51,75.0120464 C51,74.3661024 50.4814399,73.8431375 49.8409365,73.8431375 Z" id="Path" fill="#1D1537"></path>
                    <path d="M4,48.1862574 L4,73.8137426 C4,74.4686555 4.53747201,75 5.19993751,75 L14.8000625,75 C15.462528,75 16,74.4686555 16,73.8137426 L16,48.1862574 C16,47.5313446 15.462528,47 14.8000625,47 L5.19993751,47 C4.53747201,47 4,47.5313446 4,48.1862574 Z M6.39987501,49.3731328 L13.600125,49.3731328 L13.600125,72.6268674 L6.39987501,72.6268674 L6.39987501,49.3731328 Z" id="Shape" fill="#1D1537" fill-rule="nonzero"></path>
                    <path d="M16.8393691,32 C17.4807385,32 18,31.5521999 18,30.9997397 C18,30.4477999 17.4807385,30 16.8393691,30 L8.16063088,30 C7.51986591,30 7,30.4477999 7,30.9997397 C7,31.5521999 7.51986591,32 8.16063088,32 L16.8393691,32 Z" id="Path" fill="#000000"></path>
                    <path d="M46.5003078,5 C40.748837,5 35.3469847,7.23407004 31.2906714,11.2904763 C27.2343579,15.3468827 25,20.7486546 25,26.5000001 C25,32.2513454 27.2343579,37.6531173 31.2906714,41.7095237 C35.3476002,45.7659301 40.748837,48 46.5003078,48 C52.2517786,48 57.6530154,45.7659301 61.7099443,41.7095237 C65.7662578,37.6531173 68,32.2513454 68,26.5000001 C68,20.7486546 65.7662578,15.3468827 61.7099443,11.2904763 C57.6530154,7.23407004 52.2517786,5 46.5003078,5 Z M60.038177,40.0379716 C56.4281195,43.6481794 51.6202493,45.6360709 46.5003078,45.6360709 C41.3797507,45.6360709 36.5724961,43.6481794 32.9624386,40.0379716 C29.3517658,36.4277639 27.3636181,31.6198975 27.3636181,26.5000001 C27.3636181,21.3794871 29.3517658,16.5716208 32.9624386,12.961413 C36.6943701,9.22934677 41.5976468,7.36269827 46.5003078,7.36269827 C51.4029689,7.36269827 56.3062455,9.22934677 60.038177,12.961413 C63.6482344,16.5716208 65.6363819,21.3794871 65.6363819,26.5000001 C65.6363819,31.6198975 63.6482344,36.4277639 60.038177,40.0379716 Z" id="Shape" fill="#1D1537" fill-rule="nonzero"></path>
                </g>
                <rect id="Rectangle" fill="#D6D3DF" x="6" y="49" width="8" height="24"></rect>
            </g>
        </g>
    </g>
</svg>