<?xml version="1.0" encoding="UTF-8"?>
<svg width="62px" height="81px" viewBox="0 0 62 81" version="1.1" xmlns="http://www.w3.org/2000/svg" xmlns:xlink="http://www.w3.org/1999/xlink">
    <!-- Generator: Sketch 52.5 (67469) - http://www.bohemiancoding.com/sketch -->
    <title>checklist 2</title>
    <desc>Created with Sketch.</desc>
    <g id="Page-1" stroke="none" stroke-width="1" fill="none" fill-rule="evenodd">
        <g id="Landing-Page-Renewal" transform="translate(-990.000000, -855.000000)">
            <g id="checklist-2" transform="translate(990.000000, 855.000000)">
                <g id="checklist">
                    <polygon id="Path" fill="#F7F5FF" points="61.0882353 0.931034483 0.911764706 0.931034483 0.911764706 67.3047831 13.4485294 80.0689655 61.0882353 80.0689655"></polygon>
                    <polygon id="Path" fill="#706691" points="12.7647059 67.9655172 0.911764706 67.9655172 12.7647059 80.0689655"></polygon>
                    <path d="M60.8344407,26.5237427 C61.4784062,26.5237427 62,25.9916611 62,25.3353653 L62,1.18899536 C62,0.532081564 61.4784062,0 60.8344407,0 L1.16555929,0 C0.521593802,0 0,0.532081564 0,1.18899536 L0,67.1300354 C0,67.4414978 0.125400648,67.7504883 0.341065465,67.9711074 L12.7720824,80.6520767 C12.988353,80.8720779 13.291253,81 13.5965763,81 L60.8344407,81 C61.4784062,81 62,80.4679184 62,79.8110046 L62,30.831688 C62,30.1747742 61.4784062,29.6426926 60.8344407,29.6426926 C60.1904752,29.6426926 59.6688814,30.1747742 59.6688814,30.831688 L59.6688814,78.6220093 L14.7621355,78.6220093 L14.7621355,67.1300354 C14.7621355,66.4731216 14.2405417,65.94104 13.5965763,65.94104 L2.33111858,65.94104 L2.33111858,2.37799072 L59.6688814,2.37799072 L59.6688814,25.3353653 C59.6688814,25.9916611 60.1904752,26.5237427 60.8344407,26.5237427 Z M12.431017,68.3190308 L12.431017,76.9411011 L3.97889471,68.3190308 L12.431017,68.3190308 Z" id="Shape" fill="#1D1537" fill-rule="nonzero"></path>
                    <path d="M10.0294118,16.0457342 L10.0294118,25.8508175 C10.0294118,26.4857349 10.5345451,27 11.1581884,27 L20.7891642,27 C21.4128075,27 21.9179408,26.4857349 21.9179408,25.8508175 L21.9179408,20.33725 L25.0267701,18.227628 C25.5453972,17.8752281 25.6856143,17.1620659 25.3394717,16.6340631 C24.9939159,16.1060603 24.2934172,15.9633084 23.7747901,16.3157085 L21.9179408,17.5753893 L21.9179408,16.0457342 C21.9179408,15.4108168 21.4128075,14.8965517 20.7891642,14.8965517 L11.1581884,14.8965517 C10.5345451,14.8965517 10.0294118,15.4108168 10.0294118,16.0457342 Z M12.2869651,17.1949168 L19.6603875,17.1949168 L19.6603875,19.1074335 L17.3212854,20.6950257 L15.5676922,18.9097312 C15.1270938,18.4611678 14.4125149,18.4611678 13.9719165,18.9097312 C13.5307314,19.358892 13.5307314,20.0863889 13.9719165,20.5349524 L16.3796604,22.9862232 C16.7551371,23.3684877 17.3611798,23.4300084 17.8035383,23.1295724 L19.6603875,21.8692942 L19.6603875,24.701635 L12.2869651,24.701635 L12.2869651,17.1949168 Z" id="Shape" fill="#282145" fill-rule="nonzero"></path>
                    <path d="M10.0294118,41.6784037 C10.0294118,42.3133211 10.5345451,42.8275862 11.1581884,42.8275862 L20.7891642,42.8275862 C21.4128075,42.8275862 21.9179408,42.3133211 21.9179408,41.6784037 L21.9179408,36.1654336 L25.0267701,34.0552142 C25.5453972,33.7028143 25.6856143,32.9896521 25.3394717,32.4616493 C24.9939159,31.9336465 24.2934172,31.7908946 23.7747901,32.1432947 L21.9179408,33.4029755 L21.9179408,31.8733204 C21.9179408,31.238403 21.4128075,30.7241379 20.7891642,30.7241379 L11.1581884,30.7241379 C10.5345451,30.7241379 10.0294118,31.238403 10.0294118,31.8733204 L10.0294118,41.6784037 Z M12.2869651,33.022503 L19.6603875,33.022503 L19.6603875,34.9350197 L17.3212854,36.5226119 L15.5676922,34.7373174 C15.1270938,34.288754 14.4125149,34.288754 13.9719165,34.7373174 C13.5307314,35.1864782 13.5307314,35.9139751 13.9719165,36.3625386 L16.3796604,38.8138094 C16.7551371,39.1960739 17.3611798,39.2575946 17.8035383,38.9577559 L19.6603875,37.6968804 L19.6603875,40.5292212 L12.2869651,40.5292212 L12.2869651,33.022503 Z" id="Shape" fill="#1D1537" fill-rule="nonzero"></path>
                    <path d="M10.0294118,57.5059899 C10.0294118,58.1409073 10.533033,58.6551724 11.1548095,58.6551724 L20.7569552,58.6551724 C21.3787317,58.6551724 21.8823529,58.1409073 21.8823529,57.5059899 L21.8823529,47.7009067 C21.8823529,47.0659892 21.3787317,46.5517241 20.7569552,46.5517241 L11.1548095,46.5517241 C10.533033,46.5517241 10.0294118,47.0659892 10.0294118,47.7009067 L10.0294118,57.5059899 Z M12.2802071,48.8500892 L19.6315576,48.8500892 L19.6315576,56.3568074 L12.2802071,56.3568074 L12.2802071,48.8500892 Z" id="Shape" fill="#1D1537" fill-rule="nonzero"></path>
                    <path d="M40.7933671,10.2413793 C41.4275259,10.2413793 41.9411765,9.82425257 41.9411765,9.31034483 C41.9411765,8.79595308 41.4275259,8.37931034 40.7933671,8.37931034 L21.2066329,8.37931034 C20.5724741,8.37931034 20.0588235,8.79595308 20.0588235,9.31034483 C20.0588235,9.82425257 20.5724741,10.2413793 21.2066329,10.2413793 L40.7933671,10.2413793 Z" id="Path" fill="#1D1537"></path>
                    <path d="M50.8092418,18.6206897 L28.5142876,18.6206897 C27.8726497,18.6206897 27.3529412,19.0373324 27.3529412,19.5517241 C27.3529412,20.0661159 27.8726497,20.4827586 28.5142876,20.4827586 L50.8092418,20.4827586 C51.4508797,20.4827586 51.9705882,20.0661159 51.9705882,19.5517241 C51.9705882,19.0373324 51.4508797,18.6206897 50.8092418,18.6206897 Z" id="Path" fill="#1D1537"></path>
                    <path d="M28.5598256,24.2068966 L45.2931155,24.2068966 C45.959913,24.2068966 46.5,23.7902538 46.5,23.2758621 C46.5,22.7614703 45.959913,22.3448276 45.2931155,22.3448276 L28.5598256,22.3448276 C27.8930282,22.3448276 27.3529412,22.7614703 27.3529412,23.2758621 C27.3529412,23.7902538 27.8930282,24.2068966 28.5598256,24.2068966 Z" id="Path" fill="#1D1537"></path>
                    <path d="M50.8092418,33.5172414 L28.5142876,33.5172414 C27.8726497,33.5172414 27.3529412,33.9338841 27.3529412,34.4482759 C27.3529412,34.9626676 27.8726497,35.3793103 28.5142876,35.3793103 L50.8092418,35.3793103 C51.4508797,35.3793103 51.9705882,34.9626676 51.9705882,34.4482759 C51.9705882,33.9338841 51.4508797,33.5172414 50.8092418,33.5172414 Z" id="Path" fill="#1D1537"></path>
                    <path d="M27.6352723,40.0344828 L35.2764924,40.0344828 C35.9362242,40.0344828 36.4705882,39.61784 36.4705882,39.1034483 C36.4705882,38.5890565 35.9362242,38.1724138 35.2764924,38.1724138 L27.6352723,38.1724138 C26.9755405,38.1724138 26.4411765,38.5890565 26.4411765,39.1034483 C26.4411765,39.61784 26.9755405,40.0344828 27.6352723,40.0344828 Z" id="Path" fill="#1D1537"></path>
                    <path d="M50.8092418,48.4137931 L28.5142876,48.4137931 C27.8726497,48.4137931 27.3529412,48.8304358 27.3529412,49.3448276 C27.3529412,49.8592193 27.8726497,50.2758621 28.5142876,50.2758621 L50.8092418,50.2758621 C51.4508797,50.2758621 51.9705882,49.8592193 51.9705882,49.3448276 C51.9705882,48.8304358 51.4508797,48.4137931 50.8092418,48.4137931 Z" id="Path" fill="#1D1537"></path>
                    <path d="M41.7241751,54.9310345 C42.3478125,54.9310345 42.8529412,54.5143917 42.8529412,54 C42.8529412,53.4856083 42.3478125,53.0689655 41.7241751,53.0689655 L28.4817073,53.0689655 C27.8580698,53.0689655 27.3529412,53.4856083 27.3529412,54 C27.3529412,54.5143917 27.8580698,54.9310345 28.4817073,54.9310345 L41.7241751,54.9310345 Z" id="Path" fill="#1D1537"></path>
                    <path d="M51.9705882,65.1724138 C51.9705882,64.658022 51.4531099,64.2413793 50.8142255,64.2413793 L21.2151863,64.2413793 C20.5763018,64.2413793 20.0588235,64.658022 20.0588235,65.1724138 C20.0588235,65.6868055 20.5763018,66.1034483 21.2151863,66.1034483 L50.8142255,66.1034483 C51.4531099,66.1034483 51.9705882,65.6868055 51.9705882,65.1724138 Z" id="Path" fill="#1D1537"></path>
                    <path d="M20.3176991,69.8275862 C19.6709264,69.8275862 19.1470588,70.2447128 19.1470588,70.7586207 C19.1470588,71.2730124 19.6709264,71.6896552 20.3176991,71.6896552 L35.2999479,71.6896552 C35.9467207,71.6896552 36.4705882,71.2730124 36.4705882,70.7586207 C36.4705882,70.2447128 35.9467207,69.8275862 35.2999479,69.8275862 L20.3176991,69.8275862 Z" id="Path" fill="#1D1537"></path>
                    <path d="M41.3117429,69.8275862 C40.6520111,69.8275862 40.1176471,70.2447128 40.1176471,70.7586207 C40.1176471,71.2730124 40.6520111,71.6896552 41.3117429,71.6896552 L48.952963,71.6896552 C49.6126948,71.6896552 50.1470588,71.2730124 50.1470588,70.7586207 C50.1470588,70.2447128 49.6126948,69.8275862 48.952963,69.8275862 L41.3117429,69.8275862 Z" id="Path" fill="#1D1537"></path>
                </g>
            </g>
        </g>
    </g>
</svg>