<?xml version="1.0" encoding="UTF-8"?>
<svg width="81px" height="81px" viewBox="0 0 81 81" version="1.1" xmlns="http://www.w3.org/2000/svg" xmlns:xlink="http://www.w3.org/1999/xlink">
    <!-- Generator: Sketch 52.5 (67469) - http://www.bohemiancoding.com/sketch -->
    <title>Group 7</title>
    <desc>Created with Sketch.</desc>
    <g id="Page-1" stroke="none" stroke-width="1" fill="none" fill-rule="evenodd">
        <g id="Landing-Page-Renewal" transform="translate(-579.000000, -855.000000)">
            <g id="Group-7" transform="translate(579.000000, 855.000000)">
                <ellipse id="Oval" fill="#F7F5FF" cx="40.0120482" cy="40.5" rx="39.0361446" ry="38.5714286"></ellipse>
                <ellipse id="Oval-Copy" fill="#B3ADC5" cx="22.4457831" cy="54.9642857" rx="2.92771084" ry="2.89285714"></ellipse>
                <ellipse id="Oval" fill="#706691" cx="40.4759036" cy="39.9821429" rx="5.36746988" ry="5.30357143"></ellipse>
                <ellipse id="Oval-Copy-2" fill="#D6D3DF" cx="63.4337349" cy="39.5357143" rx="2.92771084" ry="2.89285714"></ellipse>
                <ellipse id="Oval" fill="#B3ADC5" cx="69.2891566" cy="68.4642857" rx="2.92771084" ry="2.89285714"></ellipse>
                <g id="radar" fill="#1D1537" fill-rule="nonzero">
                    <path d="M81,40.557822 C81,29.8734261 76.787209,19.8285628 69.1377715,12.273548 C61.488334,4.71853327 51.3179297,0.55774389 40.5,0.55774389 C29.6820703,0.55774389 19.511666,4.71837702 11.8622285,12.2733918 C4.21279102,19.8284065 0,29.8732699 0,40.557822 C0,51.2423741 4.21279102,61.286925 11.8622285,68.842096 C19.511666,76.3971108 29.6819121,80.5577439 40.5,80.5577439 C49.7911113,80.5577439 58.8102715,77.3944565 66.0029766,71.6322577 C66.6985957,72.0385085 67.5090703,72.2725715 68.374125,72.2725715 C70.9515703,72.2725715 73.0483945,70.2016299 73.0483945,67.6559999 C73.0483945,66.775217 72.7970098,65.9516216 72.3621094,65.250839 C77.9386113,58.2358253 81,49.5059645 81,40.557822 Z M67.4592363,13.9313638 C74.379832,20.7663771 78.3102305,29.7668634 78.6060703,39.3856322 L73.0245059,39.3856322 C72.7036699,30.5971776 68.7947871,22.6977871 62.703334,17.0755887 L66.3711152,12.9010492 C66.7389375,13.2372999 67.1026465,13.5791756 67.4592363,13.9313638 Z M53.7298945,39.385476 L47.4832441,39.385476 C47.2729922,38.1593798 46.7401641,37.0403151 45.9719297,36.1182821 L50.0625879,31.4624918 C52.1073633,33.5587458 53.4538301,36.32172 53.7298945,39.385476 Z M51.6248438,29.6845195 L55.908668,24.8090413 C59.1616406,27.9146723 61.3772754,31.9223364 62.2522969,36.2843762 C60.8495098,36.7942209 59.7617051,37.9506294 59.3586035,39.3856322 L56.1146484,39.3856322 C55.8271934,35.6160936 54.1654277,32.2199932 51.6248438,29.6845195 Z M44.1799629,34.5806228 C43.4291309,34.1279657 42.5862246,33.8110901 41.6868398,33.6604648 L41.6868398,27.4910777 C44.1310781,27.7059219 46.3857891,28.5768611 48.2707793,29.92452 L44.1799629,34.5806228 Z M47.4834023,41.7300118 L53.7300527,41.7300118 C53.1622617,48.0312741 48.0671719,53.0634714 41.686998,53.6242538 L41.686998,47.4548667 C44.6438145,46.960022 46.9822148,44.6504863 47.4834023,41.7300118 Z M56.1148066,41.7300118 L59.3256973,41.7300118 C59.6984238,43.2131397 60.7985684,44.4153295 62.2293574,44.9439243 C61.2600469,49.6451835 58.7314863,53.9301919 55.0284258,57.1045731 C51.2997363,60.3011418 46.6011035,62.1667705 41.6868398,62.4266147 L41.6868398,55.9795709 C49.377252,55.4076948 55.535625,49.3254954 56.1148066,41.7300118 Z M61.561582,40.6184471 C61.561582,39.4854762 62.4065449,38.5464118 63.5062148,38.3765678 C63.5426016,38.379849 63.5793047,38.381724 63.6164824,38.381724 C63.6732773,38.381724 63.7308633,38.3776615 63.7887656,38.3693802 C63.825627,38.3640677 63.8616973,38.356724 63.897293,38.3482864 C65.1494707,38.3670365 66.1626035,39.3775072 66.1626035,40.6184471 C66.1624453,41.8595433 65.1493125,42.870014 63.8971348,42.8887641 C63.8579004,42.878764 63.817875,42.870639 63.7770586,42.8645453 C63.6797637,42.8501702 63.5837344,42.8492327 63.4896035,42.8579828 C62.398002,42.6812637 61.561582,41.7457931 61.561582,40.6184471 Z M64.6269258,36.0648445 C63.6835605,31.101866 61.1766738,26.5406071 57.4668105,23.0352878 L61.147248,18.8463734 C66.7387793,24.0363835 70.3309395,31.3026477 70.6492441,39.3856322 L68.3657402,39.3856322 C67.8844863,37.6735976 66.4282266,36.3592201 64.6269258,36.0648445 Z M41.6866816,2.92212351 C50.1291914,3.17540525 58.1004141,6.12634852 64.5815215,11.3604212 L60.911209,15.5377731 C55.6118789,11.3124524 48.9491543,8.69338478 41.6866816,8.43494677 L41.6866816,2.92212351 Z M41.6866816,10.7808889 C48.3551016,11.0369831 54.4743984,13.4399566 59.355123,17.3088704 L55.6738945,21.4987223 C51.6699316,18.3869975 46.7817715,16.5840252 41.6866816,16.3408997 L41.6866816,10.7808889 Z M41.6866816,18.6888731 C46.2093926,18.9277798 50.5465312,20.5273141 54.1159102,23.2718508 L49.8330352,28.1463915 C47.5229531,26.447482 44.724498,25.3616986 41.6866816,25.1357606 L41.6866816,18.6888731 Z M30.3204199,19.7505939 C30.5752852,20.346845 31.2723281,20.6259081 31.8755566,20.3740326 C34.2440156,19.3855932 36.7407773,18.8204358 39.3131602,18.687623 L39.3131602,25.1359169 C31.622748,25.707793 25.4642168,31.7899924 24.8851934,39.3856322 L18.3585234,39.3856322 C18.7247637,32.6346815 22.2362402,26.3967006 27.9128848,22.5240368 C28.4521992,22.1557548 28.5874629,21.4257534 28.2148945,20.8930961 C27.8423262,20.3605951 27.1032012,20.2266886 26.5637285,20.5948143 C20.2455703,24.9051352 16.351084,31.8637425 15.9824707,39.3853197 L10.3507559,39.3853197 C10.5364863,34.6951543 11.8331191,30.1254579 14.1389297,26.0460749 C14.6105332,26.2045127 15.1153594,26.2918567 15.6405938,26.2918567 C18.2178809,26.2918567 20.3147051,24.2209151 20.3147051,21.6752851 C20.3147051,20.7334083 20.0270918,19.8571566 19.5347637,19.1260614 C24.905127,13.9968326 31.8708105,11.0624519 39.3131602,10.7799514 L39.3131602,16.3396497 C36.4215234,16.4744937 33.6137344,17.1029325 30.9516504,18.2141846 C30.3479473,18.4665289 30.0652383,19.1543427 30.3204199,19.7505939 Z M39.3131602,27.491234 L39.3131602,33.660621 C36.3561855,34.155622 34.017627,36.4650015 33.5165977,39.3856322 L27.2699473,39.3856322 C27.8380547,33.0843699 32.9329863,28.0520163 39.3131602,27.491234 Z M13.3400039,21.6755976 C13.3400039,20.4227827 14.3719629,19.4035619 15.6404355,19.4035619 C16.9089082,19.4035619 17.940709,20.4227827 17.940709,21.6755976 C17.940709,22.9284126 16.90875,23.9476333 15.6404355,23.9476333 C14.3721211,23.9476333 13.3400039,22.9284126 13.3400039,21.6755976 Z M13.5406055,13.9312075 C20.4612012,7.09603791 29.5740176,3.21431158 39.313002,2.92212351 L39.313002,8.43447802 C31.1913281,8.72010358 23.5909336,11.9329224 17.7586172,17.5626209 C17.122166,17.2415265 16.4025,17.0591824 15.6402773,17.0591824 C13.062832,17.0591824 10.9660078,19.1301239 10.9660078,21.6757539 C10.9660078,22.8543499 11.4162539,23.9307583 12.1549043,24.7476349 C9.59612695,29.2151436 8.16264844,34.2348409 7.9734375,39.3856322 L2.39377148,39.3856322 C2.68976953,29.7667072 6.62000977,20.7662209 13.5406055,13.9312075 Z M39.3131602,70.3344427 C34.4397129,70.1453798 29.674793,68.7974084 25.464375,66.4027162 C21.0470273,63.8902113 17.315332,60.2853605 14.6730234,55.9776959 C14.3330449,55.4239448 13.6032539,55.247382 13.0427402,55.5825389 C12.4822266,55.9181645 12.3031406,56.6387909 12.6426445,57.192542 C15.4921992,61.8377073 19.5162539,65.7250587 24.27975,68.4342827 C28.8499219,71.0336628 34.0239551,72.4911656 39.3131602,72.6813223 L39.3133184,78.1933643 C29.5741758,77.90102 20.4613594,74.0192936 13.5407637,67.184124 C6.62000977,60.3487982 2.68976953,51.3483118 2.39377148,41.7296993 L7.97501953,41.7296993 C8.11344727,45.5722068 8.93088281,49.3067454 10.4151445,52.8469085 C10.6043555,53.2984719 11.046375,53.5709724 11.5122832,53.5709724 C11.6635254,53.5709724 11.8176152,53.5422224 11.9658516,53.481441 C12.5714531,53.2339405 12.8592246,52.5481579 12.6084727,51.9500318 C11.2439707,48.6956504 10.4876016,45.2625187 10.3502813,41.7296993 L15.9831035,41.7296993 C16.1625059,45.4078315 17.1819668,48.993151 18.9685547,52.209251 C18.3264082,52.9998776 17.9408672,54.0023795 17.9408672,55.0925379 C17.9408672,57.6381679 20.0376914,59.7091094 22.6151367,59.7091094 C23.3969766,59.7091094 24.1340449,59.5177028 24.7823613,59.1809834 C28.8859922,62.5625525 33.9761777,64.5213063 39.3133184,64.7747443 L39.3133184,70.3344427 L39.3131602,70.3344427 Z M20.3145469,55.0928504 C20.3145469,53.8400355 21.3466641,52.8208147 22.6149785,52.8208147 C23.8834512,52.8208147 24.915252,53.8400355 24.915252,55.0928504 C24.915252,56.3456654 23.883293,57.3648861 22.6149785,57.3648861 C21.3465059,57.3648861 20.3145469,56.3456654 20.3145469,55.0928504 Z M39.3131602,62.426771 C34.6401563,62.1811455 30.1819922,60.4887984 26.5488574,57.5811365 C27.0165059,56.8625414 27.2890898,56.0087897 27.2890898,55.0926942 C27.2889316,52.5472204 25.1921074,50.4762789 22.6148203,50.4762789 C22.0085859,50.4762789 21.4295625,50.5920604 20.8976836,50.8004983 C19.397127,48.0023678 18.5309648,44.9065805 18.3593145,41.7300118 L24.8850352,41.7300118 C25.4640586,49.3254954 31.6222734,55.407851 39.313002,55.9797271 L39.3131602,62.426771 Z M39.3131602,53.6242538 C32.9331445,53.0633152 27.8380547,48.0312741 27.2701055,41.7300118 L33.5167559,41.7300118 C34.0177852,44.6504863 36.3561855,46.9601783 39.3133184,47.455023 L39.3133184,53.6242538 L39.3131602,53.6242538 Z M35.7888691,40.557822 C35.7888691,37.992192 37.9023047,35.9048442 40.5,35.9048442 C43.0976953,35.9048442 45.2111309,37.9920358 45.2111309,40.557822 C45.2111309,43.1236083 43.0978535,45.2106436 40.5,45.2106436 C37.9021465,45.2104874 35.7888691,43.1232958 35.7888691,40.557822 Z M68.374125,69.9281919 C67.1056523,69.9281919 66.0736934,68.9089711 66.0736934,67.6561562 C66.0736934,66.4033412 67.1058105,65.3841205 68.374125,65.3841205 C68.943498,65.3841205 69.4643027,65.5906834 69.8664551,65.9303716 C69.9260977,66.0139655 69.9966563,66.0916219 70.0803457,66.1599033 C70.1009121,66.1766221 70.1224277,66.1913096 70.143627,66.2064659 C70.4749043,66.6002166 70.6745566,67.1055301 70.6745566,67.6561562 C70.6747148,68.9089711 69.6425977,69.9281919 68.374125,69.9281919 Z M70.6386445,63.6194296 C69.9673887,63.2505226 69.1953574,63.0397409 68.374125,63.0397409 C65.7966797,63.0397409 63.6998555,65.1106825 63.6998555,67.6563124 C63.6998555,68.4933453 63.927668,69.2781906 64.3234922,69.9556919 C57.8912695,75.0438269 49.9336523,77.9386763 41.6866816,78.1927393 L41.6866816,72.683041 C47.458248,72.4772594 53.0458242,70.7719435 57.9159492,67.7200626 C62.9787656,64.5469314 67.0551855,60.0678601 69.7039805,54.7669123 C69.9939668,54.1864424 69.752707,53.4834723 69.1649824,53.1969092 C68.5769414,52.9105024 67.8656602,53.1489404 67.5753574,53.729254 C65.1190957,58.6444198 61.3393066,62.7978655 56.6441543,65.7405274 C52.1551406,68.5538142 47.0068945,70.131786 41.6866816,70.3366302 L41.6866816,64.7749006 C47.1728496,64.5130251 52.4237695,62.4420835 56.5843535,58.8753578 C60.7443047,55.3091008 63.5660156,50.4750289 64.6027207,45.1767373 C66.4576523,44.8836117 67.9514062,43.5090778 68.3983301,41.7303243 L70.651459,41.7303243 C70.5470449,44.3978295 70.0858828,47.0237721 69.276041,49.5526833 C69.0786035,50.1700283 69.4249102,50.8286233 70.0499707,51.02378 C70.1689395,51.0609675 70.2894902,51.0786238 70.4081426,51.0786238 C70.9120195,51.0786238 71.379668,50.7590919 71.5394531,50.2594035 C72.4222266,47.5018981 72.9207246,44.6379862 73.0264043,41.7301681 L78.6052793,41.7301681 C78.3535781,49.6640898 75.5546484,57.3555111 70.6386445,63.6194296 Z" id="Shape"></path>
                </g>
                <ellipse id="Oval" fill="#D6D3DF" cx="16.1024096" cy="21.6964286" rx="2.43975904" ry="2.41071429"></ellipse>
            </g>
        </g>
    </g>
</svg>